<svg width="140" height="40" viewBox="0 0 140 40" fill="none" xmlns="http://www.w3.org/2000/svg">
  <!-- Background -->
  <rect width="140" height="40" fill="transparent"/>
  
  <!-- Icon Circle -->
  <circle cx="20" cy="20" r="18" fill="#2563eb"/>
  
  <!-- Computer Monitor -->
  <rect x="10" y="12" width="20" height="14" rx="1.5" fill="white" stroke="#1d4ed8" stroke-width="1"/>
  <rect x="12" y="14" width="16" height="10" fill="#dbeafe"/>
  
  <!-- Monitor Stand -->
  <rect x="18" y="26" width="4" height="3" fill="white"/>
  <rect x="15" y="29" width="10" height="2" rx="1" fill="white"/>
  
  <!-- Screen Content -->
  <line x1="13" y1="16" x2="20" y2="16" stroke="#2563eb" stroke-width="0.8"/>
  <line x1="13" y1="19" x2="25" y2="19" stroke="#2563eb" stroke-width="0.8"/>
  <line x1="13" y1="22" x2="18" y2="22" stroke="#2563eb" stroke-width="0.8"/>
  
  <!-- Company Name -->
  <text x="50" y="16" font-family="Arial, sans-serif" font-size="14" font-weight="bold" fill="#2563eb">KK</text>
  <text x="50" y="28" font-family="Arial, sans-serif" font-size="10" fill="#6b7280">COMPUTERS</text>
  
  <!-- Tagline -->
  <text x="85" y="22" font-family="Arial, sans-serif" font-size="9" fill="#9ca3af">IT Training Excellence</text>
  
  <!-- Decorative Elements -->
  <circle cx="130" cy="10" r="2" fill="#fbbf24" opacity="0.8"/>
  <circle cx="135" cy="15" r="1.5" fill="#34d399" opacity="0.8"/>
  <circle cx="132" cy="25" r="1.8" fill="#f472b6" opacity="0.8"/>
  
  <!-- Tech Lines -->
  <path d="M75 8 L80 8 L80 12 L85 12" stroke="#60a5fa" stroke-width="0.8" fill="none" opacity="0.5"/>
  <path d="M75 32 L80 32 L80 28 L85 28" stroke="#60a5fa" stroke-width="0.8" fill="none" opacity="0.5"/>
</svg>
